<svg width="50" height="50" viewBox="0 0 50 50" fill="none" xmlns="http://www.w3.org/2000/svg">
<rect width="50" height="50" rx="25" fill="#00DC82"/>
<path d="M16.2564 30.3586C14.5641 31.7801 14 35.9996 14 35.9996C14 35.9996 18.2195 35.4355 19.641 33.7432C20.4421 32.7955 20.4308 31.3401 19.5395 30.4601C19.101 30.0416 18.5233 29.7997 17.9174 29.781C17.3115 29.7622 16.72 29.9679 16.2564 30.3586Z" stroke="#010101" stroke-width="2" stroke-linecap="round" stroke-linejoin="round"/>
<path d="M24.7179 28.6669L21.3333 25.2823C21.9336 23.7248 22.6896 22.2317 23.5897 20.8259C24.9042 18.7241 26.7347 16.9935 28.9069 15.7987C31.0791 14.604 33.5209 13.9849 35.9999 14.0003C35.9999 17.069 35.1199 22.4618 29.2307 26.4105C27.8056 27.3117 26.2938 28.0676 24.7179 28.6669Z" stroke="#010101" stroke-width="2" stroke-linecap="round" stroke-linejoin="round"/>
<path d="M21.3334 25.2824H15.6924C15.6924 25.2824 16.3129 21.8639 17.9488 20.7696C19.7765 19.5511 23.5898 20.7696 23.5898 20.7696" stroke="#010101" stroke-width="2" stroke-linecap="round" stroke-linejoin="round"/>
<path d="M24.7178 28.6666V34.3076C24.7178 34.3076 28.1362 33.6871 29.2306 32.0512C30.4491 30.2235 29.2306 26.4102 29.2306 26.4102" stroke="#010101" stroke-width="2" stroke-linecap="round" stroke-linejoin="round"/>
</svg>
